<?xml version="1.0" encoding="utf-8"?>
<!-- Generator: Adobe Illustrator 16.0.0, SVG Export Plug-In . SVG Version: 6.00 Build 0)  -->
<!DOCTYPE svg PUBLIC "-//W3C//DTD SVG 1.1//EN" "http://www.w3.org/Graphics/SVG/1.1/DTD/svg11.dtd">
<svg version="1.1" id="Слой_1" xmlns="http://www.w3.org/2000/svg" xmlns:xlink="http://www.w3.org/1999/xlink" x="0px" y="0px"
	 width="153.67px" height="208.979px" viewBox="0 193.052 153.67 208.979" enable-background="new 0 193.052 153.67 208.979"
	 xml:space="preserve" fill="#fdd20e">
<g id="Слой_2">
	<g id="Layer_1">
		<g id="Layer_2">
			<g id="Layer_1-2">
				<path d="M151.54,334.216l-51.235-29.724l9.525-5.57l37.524,22.543c1.987,1.125,4.511,0.426,5.635-1.563
					c1.084-1.914,0.479-4.342-1.377-5.523l-33.635-20.206l21.714-12.707c1.97-1.155,2.63-3.689,1.475-5.659
					c-0.349-0.595-0.841-1.093-1.432-1.449l-57.138-34.442l9.446-5.412l50.116,29.882c2.002,1.098,4.516,0.364,5.613-1.638
					c1.043-1.902,0.438-4.287-1.385-5.463l-46.083-27.501l8.854-5.052l35.359,20.862c1.987,1.124,4.511,0.425,5.635-1.563
					c1.097-1.938,0.462-4.396-1.435-5.56l-37.438-22.097c-1.285-0.745-2.872-0.745-4.157,0l-63.257,36.204v-11.777l54.995-31.447
					c2.032-1.043,2.835-3.535,1.793-5.567c-1.042-2.033-3.535-2.836-5.567-1.794l-0.325,0.188l-50.896,29.06v-11.077l37.301-21.454
					c1.97-1.155,2.63-3.688,1.474-5.658c-1.143-1.948-3.636-2.618-5.602-1.507l-39.364,22.651c-1.29,0.741-2.081,2.12-2.071,3.608
					V330.47l-9.381-5.427v-99.699c0.096-2.281-1.677-4.208-3.958-4.304s-4.209,1.676-4.305,3.958c0,0.115,0,0.23,0,0.346v94.922
					l-9.525-5.506v-79.241c0.001-2.287-1.854-4.142-4.142-4.142c-2.287,0-4.142,1.854-4.143,4.142l0,0v81.63
					c-0.01,1.486,0.777,2.864,2.064,3.608l34.638,19.996c0.493,0.484,1.102,0.837,1.768,1.024l25.791,14.887l-9.331,5.542
					L6.343,334.209c-1.931-1.22-4.484-0.644-5.704,1.288c-1.22,1.931-0.643,4.484,1.288,5.704l0.304,0.173l44.675,25.712
					l-10.103,5.989L6.365,355.034c-1.917-1.241-4.478-0.693-5.719,1.224c-1.242,1.917-0.694,4.478,1.223,5.719l0,0l0.281,0.166
					l32.545,19.296c1.302,0.772,2.921,0.772,4.222,0l62.571-37.163l9.857,5.917l-60.616,36.29c-2.042,1.021-2.87,3.505-1.849,5.548
					c1.021,2.042,3.506,2.87,5.548,1.849c0.192-0.096,0.377-0.207,0.552-0.332l64.375-38.556l9.987,5.997l-62.059,35.503
					c-2.047,1.013-2.886,3.493-1.873,5.54s3.493,2.885,5.54,1.872c0.065-0.032,0.13-0.066,0.193-0.102l0.245-0.138l68.193-39.003
					c1.98-1.137,2.664-3.664,1.527-5.645c-0.351-0.611-0.852-1.122-1.455-1.485l-64.174-38.527l16.598-9.705l55.282,32.068
					c1.951,1.195,4.502,0.583,5.697-1.367c1.196-1.951,0.584-4.502-1.367-5.697L151.54,334.216L151.54,334.216z M65.277,322.497
					l28.18,16.907L72.53,351.823l-28.685-16.597v-73.122l30.524-17.492l20.047,12.065L65.4,272.769
					c-2.063,0.979-2.941,3.445-1.962,5.509c0.979,2.063,3.445,2.941,5.508,1.963c0.158-0.075,0.312-0.16,0.459-0.255l33.194-18.387
					l8.891,5.361c-13.754,8.291-45.765,27.01-46.184,27.233c-2.005,1.097-2.741,3.61-1.646,5.614
					c1.096,2.005,3.609,2.742,5.614,1.646l0.209-0.122c1.739-1.018,39.278-22.963,49.965-29.587l10.023,6.047l-64.166,37.524
					c-1.969,1.157-2.627,3.691-1.47,5.66c0.35,0.595,0.843,1.093,1.434,1.448L65.277,322.497z"/>
				<path d="M191.95,356.875V238.32h53.328c12.181,0,21.992,3.114,29.435,9.345c7.442,6.229,11.161,13.563,11.156,22.002
					c0.02,3.162-0.506,6.304-1.552,9.287c-0.837,2.564-2.124,4.96-3.803,7.072c-1.362,1.634-2.841,3.168-4.424,4.589
					c-1.16,1.082-2.452,2.013-3.846,2.771l-1.588,0.815c0.549,0.221,1.307,0.538,2.273,0.952c1.743,0.854,3.431,1.818,5.051,2.887
					c2.352,1.456,4.518,3.19,6.451,5.167c2.126,2.337,3.835,5.022,5.052,7.938c1.536,3.461,2.312,7.211,2.273,10.998
					c0,9.261-4.039,17.361-12.116,24.304s-18.421,10.415-31.029,10.42L191.95,356.875z M224.113,263.786v20.256h17.78
					c3.367,0,6.04-0.924,8.018-2.771c3.965-4.103,3.965-10.61,0-14.714c-1.978-1.852-4.65-2.778-8.018-2.778L224.113,263.786z
					 M246.108,331.495c3.747,0,6.807-1.13,9.179-3.392c4.681-4.596,4.749-12.116,0.153-16.797c-0.001-0.001-0.001-0.001-0.002-0.002
					l-0.151-0.151c-2.372-2.262-5.432-3.392-9.179-3.392h-21.995v23.733H246.108z"/>
				<path d="M338.359,331.495l-8.429,25.38h-34.731l44.893-118.563h35.554l44.892,118.563h-34.724l-8.516-25.38H338.359z
					 M357.843,271.391l-10.997,34.725h22.053L357.843,271.391z"/>
				<path d="M480.027,314.877c-2.38-1.773-5.051-3.117-7.895-3.97c-3.223-1.049-6.807-2.164-10.752-3.348
					c-4.018-1.214-7.941-2.719-11.74-4.503c-3.792-1.751-7.37-3.93-10.666-6.495c-3.39-2.771-6.083-6.298-7.865-10.298
					c-2.108-4.666-3.146-9.745-3.038-14.865c0-9.698,4.202-18.199,12.606-25.502s19.166-10.954,32.285-10.954
					c5.152-0.03,10.29,0.566,15.299,1.775c4.101,0.917,8.071,2.343,11.819,4.243c2.768,1.475,5.446,3.108,8.024,4.893
					c1.827,1.169,3.448,2.632,4.799,4.33l1.609,1.681l-18.683,19.484c-0.767-0.884-1.58-1.725-2.439-2.519
					c-1.072-1.021-3.305-2.413-6.696-4.179c-3.163-1.707-6.695-2.616-10.29-2.648c-3.302-0.114-6.532,0.973-9.093,3.06
					c-2.405,2.04-3.607,4.409-3.607,7.108c0,2.15,1.02,4.01,3.06,5.578c2.393,1.752,5.061,3.094,7.895,3.969
					c3.223,1.073,6.778,2.203,10.665,3.392c4.012,1.231,7.935,2.736,11.741,4.503c3.827,1.748,7.436,3.94,10.752,6.53
					c3.365,2.789,6.031,6.325,7.786,10.327c2.117,4.669,3.163,9.754,3.06,14.88c0,10.969-4.33,20.2-12.989,27.695
					s-20.145,11.238-34.457,11.229c-5.702,0.018-11.384-0.69-16.907-2.107c-4.663-1.1-9.165-2.798-13.394-5.051
					c-3.215-1.801-6.32-3.788-9.302-5.953c-2.151-1.504-4.146-3.221-5.953-5.124l-1.818-2.063l18.604-19.426
					c0.354,0.479,0.755,0.921,1.197,1.32c0.577,0.553,1.708,1.573,3.392,3.06c1.654,1.469,3.439,2.782,5.333,3.926
					c2.216,1.278,4.575,2.29,7.028,3.016c2.732,0.857,5.58,1.29,8.443,1.285c4.521,0,8.202-1.241,11.04-3.724
					c2.696-2.18,4.261-5.461,4.258-8.927C483.119,318.364,482.082,316.488,480.027,314.877z"/>
				<path d="M566.852,331.495l-8.436,25.38h-34.725l44.893-118.563h35.561l44.893,118.563h-34.731l-8.516-25.38H566.852z
					 M586.336,271.391l-10.997,34.725h22.024L586.336,271.391z"/>
				<path d="M662.496,356.875V238.32h32.162v89.798h52.498v28.771L662.496,356.875z"/>
				<path d="M841.89,238.32v28.864h-33.072v89.69h-32.162V267.17h-32.985v-28.864L841.89,238.32z"/>
			</g>
		</g>
	</g>
</g>
</svg>
