<?xml version="1.0" encoding="utf-8"?>
<!-- Generator: Adobe Illustrator 16.0.0, SVG Export Plug-In . SVG Version: 6.00 Build 0)  -->
<!DOCTYPE svg PUBLIC "-//W3C//DTD SVG 1.1//EN" "http://www.w3.org/Graphics/SVG/1.1/DTD/svg11.dtd">
<svg version="1.1" id="Слой_1" xmlns="http://www.w3.org/2000/svg" xmlns:xlink="http://www.w3.org/1999/xlink" x="0px" y="0px"
	 width="143.831px" height="124.147px" viewBox="6.096 187.857 143.831 124.147"
	 enable-background="new 6.096 187.857 143.831 124.147" xml:space="preserve">
<g>
	<g>
		<g>
			<path fill="#979695" d="M78.059,187.857c7.148,0,14.297,3.526,18.3,10.675c0,0,3.051,4.956,4.289,6.958
				c6.101,10.198-1.048,23.257-12.39,23.257c-0.478,0-1.048,0-1.62-0.096c-0.191,0-0.286,0-0.477,0
				c-2.192,0-6.291,0.191-11.628,0.953c-6.958,1.43-12.296,7.625-12.296,15.059c0,8.483,6.862,15.44,15.44,15.44
				c1.716,0,6.386-1.812,10.389-3.336c1.812-0.858,3.718-1.524,5.72-2.097c3.812-1.145,8.006-1.717,12.295-1.717
				c11.818,0,24.59,4.48,33.358,15.536c4.194,5.242,7.721,12.486,7.721,12.486c5.623,10.103,2.002,22.779-8.007,28.403
				c-3.24,1.811-6.672,2.669-10.197,2.669c-6.101,0-12.104-2.669-16.108-7.625c-0.762-0.953-3.05-4.861-4.956-7.72
				c-7.053-10.39-18.49-15.632-29.928-15.632c-9.245,0-18.49,3.431-25.448,10.198c-4.861,6.386-7.053,9.912-8.769,12.486
				c-3.718,5.433-10.009,8.292-16.489,8.292c-3.622,0-7.244-0.858-10.484-2.765c-10.103-5.623-13.629-18.3-8.006-28.402
				l19.539-31.644l0,0l31.453-50.801C63.763,191.479,70.911,187.857,78.059,187.857"/>
		</g>
		<g>
			<g>
				<g>
					<g>
						<g>
							<path fill="#655A93" d="M96.359,198.627c-8.006-14.297-28.593-14.2-36.504,0l-31.453,50.802
								c18.204-18.681,51.754-20.968,58.33-20.778c12.2,1.334,20.396-12.39,13.915-23.064
								C99.409,203.488,96.359,198.627,96.359,198.627z"/>
						</g>
					</g>
				</g>
				<g>
					<g>
						<g>
							<path fill="#655A93" d="M139.249,309.379c10.103-5.623,13.629-18.301,8.006-28.403c0,0-3.622-7.339-7.72-12.485
								c-12.01-15.06-31.453-18.015-45.654-13.82c-21.064,6.1-31.453,26.687-41.271,36.695l0,0
								c15.44-15.25,42.604-13.439,55.28,5.336c1.906,2.859,4.194,6.768,4.956,7.721
								C119.234,312.047,130.29,314.335,139.249,309.379z"/>
						</g>
					</g>
				</g>
				<g>
					<g>
						<g>
							<path fill="#594C82" d="M52.612,291.27c8.864-9.055,18.301-26.782,35.552-34.598c-4.003,1.524-8.674,3.336-10.39,3.336
								c-8.482,0-15.439-6.862-15.439-15.44c0-7.435,5.242-13.629,12.295-15.06c-13.248,1.812-33.454,6.863-46.227,19.826
								L8.864,280.976c-5.622,10.103-2.002,22.779,8.007,28.403c9.245,5.146,21.254,2.858,26.973-5.623
								C45.654,301.182,47.846,297.75,52.612,291.27L52.612,291.27z"/>
						</g>
					</g>
				</g>
			</g>
		</g>
	</g>
	<g>
		<g>
			<g>
				<path fill="#594C82" d="M194.624,207.586h9.722l24.495,46.322h-9.912l-3.622-6.863h-5.433c-2.765,0-5.528,0.191-8.292,0.668
					c-2.765,0.477-5.242,1.048-7.435,1.716c-2.287,0.667-4.098,1.334-5.719,2.097c-1.525,0.762-2.478,1.334-2.859,1.811
					l-0.285,0.572h-9.437l21.731-40.697L194.624,207.586z M211.113,238.944l-8.863-16.869l-10.771,20.777
					c1.431-0.762,3.717-1.62,6.768-2.573c3.05-0.952,6.958-1.43,11.628-1.43h1.238V238.944z"/>
			</g>
			<g>
				<path fill="#594C82" d="M249.809,253.909h-9.531v-45.273h9.531v29.07l20.873-29.07h11.533l-14.964,20.396l6.672,11.247
					c1.334,1.906,2.669,3.051,3.908,3.432c1.238,0.381,2.478,0.571,3.717,0.571h3.145v9.626h-3.907
					c-1.145,0-2.287-0.095-3.241-0.191c-1.048-0.19-2.002-0.477-3.05-0.952c-1.049-0.478-2.098-1.144-3.241-2.097
					c-1.145-0.953-2.287-2.287-3.717-3.908l-6.291-10.295L249.809,253.909z"/>
			</g>
			<g>
				<path fill="#594C82" d="M301.372,253.909v-45.273h8.959v45.273H301.372z"/>
			</g>
			<g>
				<path fill="#594C82" d="M359.989,219.786c-1.716-1.43-3.717-2.478-6.1-3.05c-2.287-0.571-4.766-0.858-7.339-0.858
					c-1.145,0-2.192,0.096-3.241,0.381c-1.048,0.287-2.002,0.572-2.955,1.049c-0.857,0.477-1.62,0.953-2.097,1.62
					s-0.858,1.239-0.858,1.905c0,0.668,0.096,1.334,0.286,1.906c0.191,0.572,0.667,1.049,1.334,1.43s1.62,0.668,2.955,0.953
					c1.334,0.191,3.05,0.381,5.242,0.381c4.766,0,8.578,0.381,11.533,1.145c2.955,0.762,5.146,1.811,6.767,3.05
					c1.525,1.239,2.573,2.765,3.146,4.48c0.477,1.716,0.762,3.431,0.762,5.241c0,2.765-0.572,5.147-1.716,7.148
					c-1.145,2.002-2.765,3.717-4.861,4.956c-2.097,1.334-4.479,2.287-7.339,2.955c-2.764,0.667-5.814,1.048-9.055,1.048
					c-4.003,0-7.815-0.857-11.438-2.572c-3.622-1.716-6.672-4.099-9.149-7.054l6.48-6.576c0.667,0.667,1.43,1.525,2.192,2.384
					c0.762,0.857,1.716,1.715,2.764,2.478c1.048,0.762,2.383,1.43,3.813,1.905c1.43,0.478,3.24,0.763,5.241,0.763
					c4.194,0,7.625-0.572,10.104-1.812c2.573-1.238,3.812-3.049,3.812-5.527c0-2.002-1.144-3.336-3.431-4.003
					s-5.814-0.953-10.579-0.953c-2.764,0-5.242-0.19-7.53-0.667c-2.287-0.477-4.289-1.239-5.908-2.287
					c-1.62-1.048-2.955-2.479-3.908-4.193c-0.953-1.717-1.431-3.813-1.431-6.291c0-2.003,0.478-3.908,1.525-5.623
					c1.048-1.717,2.383-3.146,4.098-4.289c1.717-1.24,3.718-2.098,5.909-2.765c2.287-0.667,4.67-0.953,7.148-0.953
					c3.336,0,6.576,0.382,9.722,1.144c3.146,0.763,6.386,2.287,9.722,4.576L359.989,219.786z"/>
			</g>
			<g>
				<path fill="#594C82" d="M394.205,253.909h-8.959v-45.273h8.959v18.109c1.524-0.763,3.336-1.145,5.337-1.145
					c1.905,0,4.003,0.191,6.48,0.667c2.479,0.478,4.861,0.667,7.148,0.667c0.953,0,1.906-0.096,2.858-0.191
					c0.953-0.19,1.906-0.477,2.765-0.953v-17.155h8.959v45.272h-8.959V234.94c-0.858,0.477-1.716,0.762-2.669,0.953
					c-0.858,0.191-1.812,0.191-2.669,0.191c-2.479,0-4.767-0.191-6.958-0.572c-2.192-0.381-4.48-0.572-6.672-0.572
					c-0.953,0-2.003,0.096-2.859,0.191c-0.953,0.19-1.906,0.381-2.764,0.857L394.205,253.909L394.205,253.909z"/>
			</g>
			<g>
				<path fill="#594C82" d="M459.588,207.586h9.722l24.495,46.322h-9.912l-3.622-6.863h-5.433c-2.765,0-5.528,0.191-8.292,0.668
					c-2.765,0.477-5.242,1.048-7.435,1.716c-2.287,0.667-4.098,1.334-5.719,2.097c-1.525,0.762-2.479,1.334-2.859,1.811
					l-0.286,0.572h-9.436l21.73-40.697L459.588,207.586z M476.076,238.944l-8.863-16.869l-10.771,20.777
					c1.43-0.762,3.717-1.62,6.768-2.573c3.05-0.952,6.958-1.43,11.628-1.43h1.238V238.944z"/>
			</g>
		</g>
	</g>
</g>
</svg>
