<?xml version="1.0" encoding="utf-8"?>
<!-- Generator: Adobe Illustrator 17.0.0, SVG Export Plug-In . SVG Version: 6.00 Build 0)  -->
<!DOCTYPE svg PUBLIC "-//W3C//DTD SVG 1.1//EN" "http://www.w3.org/Graphics/SVG/1.1/DTD/svg11.dtd">
<svg version="1.1" id="Слой_1" xmlns="http://www.w3.org/2000/svg" xmlns:xlink="http://www.w3.org/1999/xlink" x="0px" y="0px"
	 width="493.788px" height="124.247px" viewBox="6.212 187.857 493.788 124.247"
	 enable-background="new 6.212 187.857 493.788 124.247" xml:space="preserve">
<g>
	<g>
		<g>
			<path fill="#fff" d="M78.059,187.857c7.148,0,14.297,3.526,18.3,10.675c0,0,3.05,4.956,4.289,6.958
				c6.1,10.198-1.048,23.256-12.39,23.256c-0.477,0-1.048,0-1.62-0.095c-0.191,0-0.286,0-0.477,0c-2.192,0-6.291,0.191-11.628,0.953
				c-6.958,1.43-12.295,7.625-12.295,15.059c0,8.483,6.862,15.44,15.44,15.44c1.716,0,6.386-1.811,10.389-3.336
				c1.811-0.858,3.717-1.525,5.719-2.097c3.812-1.144,8.006-1.716,12.295-1.716c11.819,0,24.59,4.48,33.359,15.536
				c4.194,5.242,7.72,12.486,7.72,12.486c5.623,10.103,2.002,22.779-8.006,28.403c-3.241,1.811-6.672,2.669-10.198,2.669
				c-6.1,0-12.104-2.669-16.108-7.625c-0.762-0.953-3.05-4.861-4.956-7.72c-7.053-10.389-18.49-15.631-29.928-15.631
				c-9.245,0-18.49,3.431-25.448,10.198c-4.861,6.386-7.053,9.912-8.769,12.486c-3.717,5.433-10.008,8.292-16.489,8.292
				c-3.622,0-7.244-0.858-10.484-2.764c-10.103-5.623-13.629-18.3-8.006-28.403l19.539-31.643l0,0l31.453-50.801
				C63.763,191.479,70.911,187.857,78.059,187.857"/>
		</g>
		<g>
			<g>
				<g>
					<g>
						<g>
							<path fill="#fff" d="M96.359,198.628c-8.006-14.297-28.593-14.201-36.504,0l-31.453,50.801
								c18.204-18.681,51.754-20.968,58.33-20.778c12.2,1.334,20.396-12.39,13.915-23.065
								C99.409,203.488,96.359,198.628,96.359,198.628z"/>
						</g>
					</g>
				</g>
				<g>
					<g>
						<g>
							<path fill="#fff" d="M139.249,309.379c10.103-5.623,13.629-18.3,8.006-28.403c0,0-3.622-7.339-7.72-12.486
								c-12.009-15.059-31.453-18.014-45.654-13.82c-21.064,6.1-31.453,26.687-41.27,36.695l0,0
								c15.44-15.25,42.604-13.439,55.28,5.337c1.906,2.859,4.194,6.767,4.956,7.72C119.234,312.047,130.29,314.335,139.249,309.379
								z"/>
						</g>
					</g>
				</g>
				<g>
					<g>
						<g>
							<path fill="#fff" d="M52.612,291.27c8.864-9.055,18.3-26.782,35.551-34.598c-4.003,1.525-8.673,3.336-10.389,3.336
								c-8.483,0-15.44-6.862-15.44-15.44c0-7.434,5.242-13.629,12.295-15.059c-13.248,1.811-33.454,6.862-46.226,19.825
								L8.864,280.976c-5.623,10.103-2.002,22.779,8.006,28.403c9.245,5.147,21.254,2.859,26.973-5.623
								C45.654,301.182,47.846,297.751,52.612,291.27L52.612,291.27z"/>
						</g>
					</g>
				</g>
			</g>
		</g>
	</g>
	<g>
		<g>
			<g>
				<path fill="#fff" d="M194.624,207.587h9.722l24.495,46.321h-9.912l-3.622-6.862h-5.433c-2.764,0-5.528,0.191-8.292,0.667
					c-2.764,0.477-5.242,1.048-7.434,1.716c-2.287,0.667-4.098,1.334-5.719,2.097c-1.525,0.762-2.478,1.334-2.859,1.811
					l-0.286,0.572h-9.436l21.731-40.698L194.624,207.587z M211.113,238.944l-8.864-16.87l-10.77,20.778
					c1.43-0.762,3.717-1.62,6.767-2.573c3.05-0.953,6.958-1.43,11.628-1.43h1.239V238.944z"/>
			</g>
			<g>
				<path fill="#fff" d="M249.809,253.908h-9.531v-45.273h9.531v29.07l20.873-29.07h11.533l-14.964,20.396l6.672,11.247
					c1.334,1.906,2.669,3.05,3.908,3.431c1.239,0.381,2.478,0.572,3.717,0.572h3.145v9.626h-3.908c-1.144,0-2.287-0.095-3.241-0.191
					c-1.048-0.191-2.002-0.477-3.05-0.953c-1.048-0.477-2.097-1.144-3.241-2.097c-1.144-0.953-2.287-2.287-3.717-3.908
					l-6.291-10.294L249.809,253.908z"/>
			</g>
			<g>
				<path fill="#fff" d="M301.372,253.908v-45.273h8.959v45.273H301.372z"/>
			</g>
			<g>
				<path fill="#fff" d="M359.989,219.786c-1.716-1.43-3.717-2.478-6.1-3.05c-2.287-0.572-4.766-0.858-7.339-0.858
					c-1.144,0-2.192,0.095-3.241,0.381c-1.048,0.286-2.002,0.572-2.955,1.048c-0.858,0.477-1.62,0.953-2.097,1.62
					c-0.477,0.667-0.858,1.239-0.858,1.906s0.095,1.334,0.286,1.906c0.191,0.572,0.667,1.048,1.334,1.43
					c0.667,0.381,1.62,0.667,2.955,0.953c1.334,0.191,3.05,0.381,5.242,0.381c4.766,0,8.578,0.381,11.533,1.144
					c2.955,0.762,5.147,1.811,6.767,3.05c1.525,1.239,2.573,2.764,3.145,4.48c0.477,1.716,0.762,3.431,0.762,5.242
					c0,2.764-0.572,5.147-1.716,7.148c-1.144,2.002-2.764,3.717-4.861,4.956c-2.097,1.334-4.48,2.287-7.339,2.955
					c-2.764,0.667-5.814,1.048-9.055,1.048c-4.003,0-7.815-0.858-11.437-2.573s-6.672-4.098-9.15-7.053l6.481-6.576
					c0.667,0.667,1.43,1.525,2.192,2.383c0.762,0.858,1.716,1.716,2.764,2.478c1.048,0.762,2.383,1.43,3.812,1.906
					c1.43,0.477,3.241,0.762,5.242,0.762c4.194,0,7.625-0.572,10.103-1.811c2.573-1.239,3.812-3.05,3.812-5.528
					c0-2.002-1.144-3.336-3.431-4.003s-5.814-0.953-10.579-0.953c-2.764,0-5.242-0.191-7.53-0.667
					c-2.287-0.477-4.289-1.239-5.909-2.287c-1.62-1.048-2.955-2.478-3.908-4.194s-1.43-3.812-1.43-6.291
					c0-2.002,0.477-3.908,1.525-5.623c1.048-1.716,2.383-3.145,4.098-4.289c1.716-1.239,3.717-2.097,5.909-2.764
					c2.287-0.667,4.67-0.953,7.148-0.953c3.336,0,6.576,0.381,9.722,1.144c3.145,0.762,6.386,2.287,9.722,4.575L359.989,219.786z"/>
			</g>
			<g>
				<path fill="#fff" d="M394.205,253.908h-8.959v-45.273h8.959v18.109c1.525-0.762,3.336-1.144,5.337-1.144
					c1.906,0,4.003,0.191,6.481,0.667c2.478,0.477,4.861,0.667,7.148,0.667c0.953,0,1.906-0.095,2.859-0.191
					c0.953-0.191,1.906-0.477,2.764-0.953v-17.156h8.959v45.273h-8.959v-18.967c-0.858,0.477-1.716,0.762-2.669,0.953
					c-0.858,0.191-1.811,0.191-2.669,0.191c-2.478,0-4.766-0.191-6.958-0.572s-4.48-0.572-6.672-0.572
					c-0.953,0-2.002,0.095-2.859,0.191c-0.953,0.191-1.906,0.381-2.764,0.858L394.205,253.908L394.205,253.908z"/>
			</g>
			<g>
				<path fill="#fff" d="M459.588,207.587h9.722l24.495,46.321h-9.912l-3.622-6.862h-5.433c-2.764,0-5.528,0.191-8.292,0.667
					c-2.764,0.477-5.242,1.048-7.434,1.716c-2.287,0.667-4.098,1.334-5.719,2.097c-1.525,0.762-2.478,1.334-2.859,1.811
					l-0.286,0.572h-9.436l21.731-40.698L459.588,207.587z M476.077,238.944l-8.864-16.87l-10.77,20.778
					c1.43-0.762,3.717-1.62,6.767-2.573s6.958-1.43,11.628-1.43h1.239V238.944z"/>
			</g>
		</g>
		
	</g>
</g>
</svg>
