<?xml version="1.0" encoding="utf-8"?>
<!-- Generator: Adobe Illustrator 17.0.0, SVG Export Plug-In . SVG Version: 6.00 Build 0)  -->
<!DOCTYPE svg PUBLIC "-//W3C//DTD SVG 1.1//EN" "http://www.w3.org/Graphics/SVG/1.1/DTD/svg11.dtd">
<svg version="1.1" id="Layer_1" xmlns="http://www.w3.org/2000/svg" xmlns:xlink="http://www.w3.org/1999/xlink" x="0px" y="0px"
	 width="501.4px" height="98.7px" viewBox="0 0 501.4 98.7" enable-background="new 0 0 501.4 98.7" xml:space="preserve" >
<g>
	<path fill="#fdd20e" d="M25.6,97.4h-7.9h-0.4h-1v-1v-65l-12.7,4l-1,0.3l-0.3-1l-2-6.8l-0.3-1l1-0.3l16.5-5.7l1.8-0.6l0.2-0.1h0.2
		h6.2h1v76.3v1h-1.3V97.4z M142.8,1.8l-2.2,8.7l-0.1,0.6l-0.6,0.2l-14.1,4.4l-1,0.3l-0.3-1l-2-6.8l-0.3-1l0.9-0.3l18.3-6.3l1.8-0.6
		L142.8,1.8z M489.9,87.3c-6.9,7-16.6,11.4-28,11.4c-11.5,0-21.1-4.4-27.9-11.4c-7.2-7.3-11.4-17.5-11.4-28.6
		c0-10.9,4.2-21.2,11.5-28.5c6.9-7,16.6-11.4,28-11.4s21,4.4,27.9,11.3c7.2,7.3,11.4,17.6,11.4,28.6S497.2,80,489.9,87.3
		 M441.8,80.2c5.1,5.3,12.1,8.6,20.3,8.6s15.2-3.2,20.2-8.5c5.1-5.4,8.2-13,8.2-21.5c0-8.4-3.1-16-8.3-21.4
		c-5-5.3-12.1-8.6-20.3-8.6c-8.2,0-15.2,3.2-20.2,8.5c-5.2,5.4-8.2,13-8.2,21.5C433.5,67.2,436.6,74.7,441.8,80.2 M73.7,97
		L31.9,43.9V26.8L72,78.4V21.1v-1h1h8.3h1v1v75.2v1h-1h-6.8H74L73.7,97z M26.6,37.4L26.6,37.4V20.2V37.4z M156.5,89.5
		c-5.7,6.1-13.9,9.2-23.9,9.2c-9.8,0-18-3.1-23.7-9c-5.4-5.7-8.6-14-8.6-24.7V21.3v-1h1h8.5h1v1v43.2c0,7.8,2,13.9,5.8,18
		c3.7,4.1,9.2,6.3,16.2,6.3c6.7,0,12.2-2,16-6.2c3.6-3.9,5.6-9.8,5.6-17.6V21.3v-1h1h8.5h1v1v43.1C165,75.3,161.9,83.7,156.5,89.5
		 M192.3,97.4H184h-1v-1V21.2v-1h1h8.6h0.5l0.3,0.5l26.5,39.7l26.5-39.7l0.3-0.5h0.5h8.6h1v1v75.2v1h-1h-8.5h-1v-1V38.9L221,76.3
		l-0.3,0.5h-0.5h-0.4h-0.6l-0.3-0.5l-25.5-37.4v57.4v1h-1.1V97.4z M332.2,97.4h-54.9h-1v-1V21.2v-1h1h54.4h1v1v7.7v1h-1h-44.8v23.6
		h40h1v1v7.7v1h-1h-40v24.2h45.4h1v1v7.7v1h-1.1V97.4z M357.8,97.4h-8.5h-1v-1V21.2v-1h1h32.3c4.7,0,8.9,0.7,12.6,2
		c3.8,1.3,7.1,3.3,9.6,5.8c2,1.9,3.5,4.3,4.6,7c1,2.7,1.6,5.6,1.6,8.7c0,6.5-2.3,11.7-6.1,15.6c-3.4,3.5-8.1,5.8-13.5,7.1l22.1,29.4
		l1.3,1.7h-2.1h-10.4h-0.5l-0.3-0.4L379,68.3h-19.9v28.1v1H357.8z M358.8,30.1v28.4h22c5.5,0,10.2-1.4,13.4-4.1
		c3.1-2.5,4.9-6.1,4.9-10.6c0-4.3-1.6-7.7-4.7-10.1c-3.1-2.4-7.7-3.7-13.5-3.7h-22.1V30.1z"/>
</g>
</svg>
